<svg width="34" height="21" viewBox="0 0 34 21" fill="none" xmlns="http://www.w3.org/2000/svg">
<g clip-path="url(#clip0_14635_8545)">
<path d="M9.68578 7.58183C9.68578 7.98842 9.72973 8.31809 9.80666 8.55985C9.89457 8.80161 10.0045 9.06535 10.1583 9.35106C10.2133 9.43897 10.2352 9.52689 10.2352 9.60381C10.2352 9.7137 10.1693 9.82359 10.0264 9.93348L9.33413 10.395C9.23523 10.461 9.13633 10.4939 9.04842 10.4939C8.93852 10.4939 8.82863 10.439 8.71874 10.3401C8.5649 10.1752 8.43303 9.99941 8.32314 9.82359C8.21325 9.63678 8.10336 9.42798 7.98248 9.17524C7.12534 10.1862 6.04841 10.6917 4.75171 10.6917C3.82863 10.6917 3.09237 10.428 2.55391 9.90051C2.01545 9.37304 1.74072 8.66974 1.74072 7.79062C1.74072 6.85656 2.07039 6.09831 2.74072 5.52689C3.41105 4.95546 4.30116 4.66974 5.43303 4.66974C5.80666 4.66974 6.19127 4.70271 6.59787 4.75765C7.00446 4.8126 7.42204 4.90051 7.8616 4.99941V4.19721C7.8616 3.36205 7.68578 2.77963 7.34512 2.43897C6.99347 2.09831 6.40006 1.93348 5.55391 1.93348C5.16929 1.93348 4.77369 1.97743 4.3671 2.07634C3.9605 2.17524 3.5649 2.29612 3.18028 2.44996C3.00446 2.52689 2.87259 2.57084 2.79567 2.59282C2.71874 2.6148 2.6638 2.62579 2.61984 2.62579C2.466 2.62579 2.38907 2.5159 2.38907 2.28513V1.74667C2.38907 1.57084 2.41105 1.43897 2.466 1.36205C2.52094 1.28513 2.61984 1.2082 2.77369 1.13128C3.15831 0.933478 3.61984 0.768643 4.1583 0.636775C4.69677 0.493918 5.2682 0.427984 5.87259 0.427984C7.18028 0.427984 8.13633 0.724687 8.75171 1.31809C9.35611 1.9115 9.6638 2.8126 9.6638 4.02139V7.58183H9.68578ZM5.22424 9.25216C5.58688 9.25216 5.9605 9.18623 6.35611 9.05436C6.75171 8.92249 7.10336 8.68073 7.40006 8.35106C7.57589 8.14227 7.70776 7.9115 7.77369 7.64776C7.83962 7.38403 7.88358 7.06535 7.88358 6.69172V6.23018C7.5649 6.15326 7.22424 6.08733 6.87259 6.04337C6.52094 5.99941 6.18028 5.97743 5.83962 5.97743C5.10336 5.97743 4.5649 6.12029 4.20226 6.417C3.83962 6.7137 3.6638 7.13128 3.6638 7.68073C3.6638 8.19722 3.79567 8.58183 4.07039 8.84557C4.33413 9.12029 4.71874 9.25216 5.22424 9.25216ZM14.0484 10.439C13.8506 10.439 13.7187 10.406 13.6308 10.3291C13.5429 10.2631 13.466 10.1093 13.4001 9.90051L10.8176 1.40601C10.7517 1.18623 10.7187 1.04337 10.7187 0.966445C10.7187 0.790621 10.8067 0.69172 10.9825 0.69172H12.0594C12.2682 0.69172 12.4111 0.724687 12.488 0.80161C12.5759 0.867544 12.6418 1.02139 12.7078 1.23018L14.5539 8.50491L16.2682 1.23018C16.3231 1.0104 16.3891 0.867544 16.477 0.80161C16.5649 0.735676 16.7187 0.69172 16.9165 0.69172H17.7957C18.0045 0.69172 18.1473 0.724687 18.2352 0.80161C18.3231 0.867544 18.4001 1.02139 18.444 1.23018L20.1803 8.59282L22.0814 1.23018C22.1473 1.0104 22.2242 0.867544 22.3012 0.80161C22.3891 0.735676 22.5319 0.69172 22.7297 0.69172H23.7517C23.9275 0.69172 24.0264 0.779632 24.0264 0.966445C24.0264 1.02139 24.0154 1.07634 24.0045 1.14227C23.9935 1.2082 23.9715 1.29612 23.9275 1.41699L21.2792 9.9115C21.2132 10.1313 21.1363 10.2741 21.0484 10.3401C20.9605 10.406 20.8176 10.45 20.6308 10.45H19.6858C19.477 10.45 19.3341 10.417 19.2462 10.3401C19.1583 10.2631 19.0814 10.1203 19.0374 9.90051L17.3341 2.8126L15.6418 9.88952C15.5869 10.1093 15.5209 10.2522 15.433 10.3291C15.3451 10.406 15.1913 10.439 14.9935 10.439H14.0484ZM28.1693 10.7357C27.5979 10.7357 27.0264 10.6697 26.477 10.5379C25.9275 10.406 25.499 10.2631 25.2132 10.0983C25.0374 9.99941 24.9165 9.88952 24.8726 9.79062C24.8286 9.69172 24.8067 9.58183 24.8067 9.48293V8.92249C24.8067 8.69172 24.8946 8.58183 25.0594 8.58183C25.1253 8.58183 25.1913 8.59282 25.2572 8.6148C25.3231 8.63678 25.422 8.68073 25.5319 8.72469C25.9056 8.88952 26.3122 9.02139 26.7407 9.1093C27.1803 9.19722 27.6089 9.24117 28.0484 9.24117C28.7407 9.24117 29.2792 9.12029 29.6528 8.87853C30.0264 8.63678 30.2242 8.28513 30.2242 7.83458C30.2242 7.52689 30.1253 7.27414 29.9275 7.06535C29.7297 6.85656 29.3561 6.66974 28.8176 6.49392L27.2242 5.99941C26.422 5.74667 25.8286 5.37304 25.466 4.87853C25.1034 4.39502 24.9165 3.85656 24.9165 3.28513C24.9165 2.82359 25.0154 2.417 25.2132 2.06535C25.4111 1.7137 25.6748 1.40601 26.0045 1.16425C26.3341 0.9115 26.7078 0.724687 27.1473 0.592819C27.5869 0.460951 28.0484 0.406006 28.5319 0.406006C28.7737 0.406006 29.0264 0.416995 29.2682 0.449962C29.5209 0.482929 29.7517 0.526885 29.9825 0.570841C30.2023 0.625786 30.4111 0.680731 30.6089 0.746665C30.8067 0.812599 30.9605 0.878533 31.0704 0.944467C31.2242 1.03238 31.3341 1.12029 31.4001 1.21919C31.466 1.3071 31.499 1.42798 31.499 1.58183V2.09831C31.499 2.32908 31.4111 2.44996 31.2462 2.44996C31.1583 2.44996 31.0154 2.40601 30.8286 2.31809C30.2023 2.03238 29.499 1.88952 28.7187 1.88952C28.0924 1.88952 27.5979 1.98842 27.2572 2.19721C26.9165 2.40601 26.7407 2.72469 26.7407 3.17524C26.7407 3.48293 26.8506 3.74667 27.0704 3.95546C27.2902 4.16425 27.6968 4.37304 28.2792 4.55985L29.8396 5.05436C30.6308 5.30711 31.2023 5.65875 31.5429 6.1093C31.8836 6.55985 32.0484 7.07634 32.0484 7.64776C32.0484 8.12029 31.9495 8.54886 31.7627 8.92249C31.5649 9.29612 31.3012 9.62579 30.9605 9.88952C30.6198 10.1642 30.2132 10.3621 29.7407 10.5049C29.2462 10.6588 28.7297 10.7357 28.1693 10.7357Z" fill="#020D20" fill-opacity="0.43"/>
<path fill-rule="evenodd" clip-rule="evenodd" d="M30.2465 16.0765C26.6311 18.7468 21.3784 20.1644 16.8619 20.1644C10.5322 20.1644 4.82892 17.8238 0.521223 13.9336C0.180564 13.626 0.488256 13.2084 0.894849 13.4501C5.55419 16.1534 11.3014 17.7908 17.2465 17.7908C21.2575 17.7908 25.6641 16.9556 29.719 15.2413C30.3234 14.9666 30.8399 15.6369 30.2465 16.0765Z" fill="#020D20" fill-opacity="0.43"/>
<path fill-rule="evenodd" clip-rule="evenodd" d="M31.752 14.3621C31.2905 13.7687 28.697 14.0764 27.5212 14.2192C27.1696 14.2632 27.1146 13.9555 27.4333 13.7247C29.4992 12.2742 32.8949 12.6918 33.2905 13.1753C33.6861 13.6698 33.1806 17.0654 31.2465 18.6918C30.9498 18.9445 30.6641 18.8126 30.796 18.483C31.2355 17.3951 32.2135 14.9445 31.752 14.3621Z" fill="#020D20" fill-opacity="0.43"/>
</g>
<defs>
<clipPath id="clip0_14635_8545">
<rect width="33.4066" height="20" fill="white" transform="translate(0.191406 0.285156)"/>
</clipPath>
</defs>
</svg>
