<svg width="50" height="21" viewBox="0 0 50 21" fill="none" xmlns="http://www.w3.org/2000/svg">
<g clip-path="url(#clip0_14635_8598)">
<path fill-rule="evenodd" clip-rule="evenodd" d="M14.7706 19.5376H9.60939V12.1766H6.25905V19.5376H0.938843V0.565674H6.25905V7.62307H9.60939V0.565674H14.7706V19.5376Z" fill="#020D20" fill-opacity="0.43"/>
<path fill-rule="evenodd" clip-rule="evenodd" d="M38.416 13.7084C40.5104 13.7084 42.2082 12.0121 42.2082 9.91908C42.2082 7.82661 40.5104 6.13008 38.416 6.13008C36.3215 6.13008 34.6238 7.82661 34.6238 9.91908C34.6238 12.0121 36.3215 13.7084 38.416 13.7084ZM33.5921 9.91908C33.5921 7.25725 35.7517 5.09914 38.416 5.09914C41.0803 5.09914 43.2403 7.25725 43.2403 9.91908C43.2403 12.5814 41.0803 14.7394 38.416 14.7394C35.7517 14.7394 33.5921 12.5814 33.5921 9.91908ZM26.8749 9.91908C27.4718 9.84355 28.4669 9.16163 28.8174 8.72636C28.6942 9.26607 28.6848 10.8281 28.8288 11.3679C28.4287 10.7524 27.4814 9.99489 26.8749 9.91908ZM23.4069 4.81623C24.1649 4.81623 24.7619 5.56397 24.7619 6.41616C24.7619 7.26834 24.1649 8.01656 23.4069 8.01656H20.8012V4.81623H23.4069ZM23.3973 11.9263C24.1553 11.9263 24.7524 12.6744 24.7524 13.5263C24.7524 14.3786 24.1553 15.1265 23.3973 15.1265H20.7917V11.9263H23.3973ZM38.4129 19.631C43.7222 19.6289 48.0429 15.2211 48.0417 9.91535C48.0407 4.49769 43.7222 0.289171 38.4129 0.285159C33.1097 0.281339 30.4 4.18187 29.7305 5.75625C29.7367 3.39281 27.4054 0.603134 24.6783 0.600151H15.8922V19.5367L24.0838 19.5383C27.3865 19.5383 29.7366 16.6788 29.7406 14.2269C30.4945 15.7701 33.1097 19.6328 38.4129 19.631Z" fill="#020D20" fill-opacity="0.43"/>
<path fill-rule="evenodd" clip-rule="evenodd" d="M46.6326 1.65046V1.23327H46.9068C47.0472 1.23327 47.1967 1.26409 47.1967 1.43097C47.1967 1.63817 47.0441 1.65046 46.8734 1.65046H46.6326ZM46.6326 1.82348H46.8642L47.215 2.40755H47.4407L47.0624 1.81426C47.2577 1.78949 47.4071 1.68454 47.4071 1.44336C47.4071 1.17768 47.2516 1.06025 46.9373 1.06025H46.4311V2.40755H46.6326V1.82348ZM46.8766 2.90212C47.5048 2.90212 48.0416 2.40755 48.0416 1.73083C48.0416 1.06025 47.5048 0.565674 46.8766 0.565674C46.242 0.565674 45.7052 1.06025 45.7052 1.73083C45.7052 2.40755 46.242 2.90212 46.8766 2.90212ZM45.937 1.73083C45.937 1.17768 46.3487 0.760393 46.8766 0.760393C47.3981 0.760393 47.8099 1.17768 47.8099 1.73083C47.8099 2.29329 47.3981 2.7074 46.8766 2.7074C46.3487 2.7074 45.937 2.29329 45.937 1.73083Z" fill="#020D20" fill-opacity="0.43"/>
</g>
<defs>
<clipPath id="clip0_14635_8598">
<rect width="48.1308" height="20" fill="white" transform="translate(0.938843 0.285156)"/>
</clipPath>
</defs>
</svg>
