<svg width="137" height="33" viewBox="0 0 137 33" fill="none" xmlns="http://www.w3.org/2000/svg">
<path d="M17.3155 2.5178L4.90291 7.6553C4.21284 7.94123 4.2198 8.92194 4.91458 9.19733L17.3789 14.1415C18.474 14.576 19.6936 14.576 20.7888 14.1415L33.2533 9.19733C33.9477 8.92194 33.955 7.94123 33.2646 7.65549L20.8524 2.5178C19.72 2.04908 18.4479 2.04908 17.3155 2.5178Z" fill="#FCB400"/>
<path d="M20.1896 16.8412V29.1927C20.1896 29.78 20.7818 30.1824 21.3278 29.9659L35.2168 24.5734C35.3717 24.5119 35.5046 24.4054 35.5982 24.2675C35.6919 24.1296 35.7419 23.9668 35.7419 23.8001V11.4488C35.7419 10.8614 35.1496 10.4591 34.6037 10.6756L20.7147 16.0681C20.5598 16.1296 20.4269 16.2362 20.3333 16.3741C20.2397 16.5119 20.1897 16.6746 20.1896 16.8412Z" fill="#18BFFF"/>
<path d="M16.9465 17.4786L12.8245 19.4694L12.406 19.6717L3.70478 23.8421C3.1534 24.1082 2.44922 23.7062 2.44922 23.0933V11.5006C2.44922 11.2789 2.56288 11.0874 2.71531 10.9434C2.77784 10.8811 2.84879 10.8279 2.92608 10.7853C3.13383 10.6605 3.43041 10.6272 3.68257 10.727L16.8772 15.9565C17.5479 16.2227 17.6006 17.1625 16.9465 17.4786Z" fill="#F82B60"/>
<path d="M16.9465 17.4786L12.8245 19.4694L2.71533 10.9432C2.77788 10.881 2.84882 10.8279 2.9261 10.7853C3.13385 10.6605 3.43043 10.6272 3.68259 10.727L16.8773 15.9565C17.5479 16.2227 17.6006 17.1625 16.9465 17.4786Z" fill="black" fill-opacity="0.25"/>
<g clip-path="url(#clip0_2001_928)">
<g clip-path="url(#clip1_2001_928)">
<path d="M54.533 17.38L52.183 11.125C52.1613 11.0686 52.123 11.0201 52.0732 10.986C52.0234 10.9518 51.9644 10.9335 51.904 10.9335C51.8436 10.9335 51.7846 10.9518 51.7348 10.986C51.685 11.0201 51.6467 11.0686 51.625 11.125L49.275 17.381C49.2587 17.4253 49.2535 17.473 49.2598 17.5199C49.2661 17.5667 49.2838 17.6113 49.3113 17.6498C49.3388 17.6882 49.3753 17.7194 49.4176 17.7405C49.4599 17.7616 49.5068 17.7721 49.554 17.771H54.274C54.3443 17.7717 54.4122 17.7458 54.4642 17.6985C54.5161 17.6512 54.5482 17.586 54.554 17.516C54.5584 17.4699 54.5511 17.4235 54.533 17.381V17.38ZM55.628 20.89H48.18C48.1192 20.8904 48.06 20.9092 48.0102 20.9441C47.9604 20.9789 47.9223 21.028 47.901 21.085L46.427 24.987C46.4058 25.0438 46.3679 25.0928 46.3183 25.1276C46.2686 25.1624 46.2096 25.1814 46.149 25.182H42.92C42.8707 25.1827 42.822 25.1711 42.7783 25.1482C42.7346 25.1254 42.6972 25.092 42.6696 25.0511C42.6421 25.0102 42.6251 24.9631 42.6203 24.914C42.6154 24.865 42.6229 24.8154 42.642 24.77L50.07 6.53697C50.0922 6.48179 50.1312 6.43499 50.1814 6.40322C50.2317 6.37145 50.2907 6.35631 50.35 6.35997H53.436C53.4946 6.36032 53.5519 6.3771 53.6013 6.40839C53.6508 6.43968 53.6906 6.48422 53.716 6.53697L61.143 24.77C61.1621 24.8156 61.1695 24.8652 61.1647 24.9144C61.1598 24.9636 61.1427 25.0108 61.115 25.0518C61.0874 25.0928 61.0499 25.1262 61.0061 25.1491C60.9623 25.172 60.9135 25.1836 60.864 25.183H57.64C57.5791 25.1825 57.5198 25.1635 57.47 25.1285C57.4201 25.0934 57.3821 25.0441 57.361 24.987L55.887 21.085C55.873 21.0275 55.8396 20.9766 55.7924 20.9409C55.7452 20.9052 55.6872 20.8878 55.628 20.89ZM62.678 12.752H65.447C65.5252 12.7535 65.5998 12.7849 65.6554 12.8398C65.711 12.8947 65.7435 12.9688 65.746 13.047V24.89C65.7435 24.9679 65.7109 25.0418 65.6553 25.0964C65.5996 25.151 65.525 25.182 65.447 25.183H62.679C62.6009 25.1822 62.526 25.1513 62.4701 25.0967C62.4142 25.0421 62.3816 24.9681 62.379 24.89V13.047C62.3786 13.0077 62.3861 12.9687 62.4011 12.9324C62.4161 12.8961 62.4383 12.8632 62.4663 12.8357C62.4943 12.8081 62.5276 12.7865 62.5641 12.7721C62.6007 12.7577 62.6387 12.7509 62.678 12.752ZM75.824 15.634C75.8217 15.7123 75.7894 15.7867 75.7337 15.8418C75.6781 15.8969 75.6033 15.9285 75.525 15.93H75.445C74.071 15.93 73.075 16.242 72.438 16.89C71.801 17.538 71.482 18.596 71.482 20.084V24.869C71.4795 24.9469 71.4472 25.0209 71.3918 25.0758C71.3363 25.1307 71.262 25.1622 71.184 25.164H68.454C68.376 25.1622 68.3017 25.1307 68.2463 25.0758C68.1909 25.0209 68.1586 24.9469 68.156 24.869V13.047C68.1586 12.9688 68.191 12.8947 68.2466 12.8398C68.3023 12.7849 68.3769 12.7535 68.455 12.752H71.163C71.2413 12.7532 71.3162 12.7845 71.372 12.8395C71.4279 12.8944 71.4605 12.9687 71.463 13.047V15.38H71.522C71.7985 14.4938 72.3407 13.7139 73.075 13.146C73.8426 12.6045 74.7663 12.3292 75.705 12.362H75.844V15.635L75.824 15.634ZM83.372 15.518C83.2944 15.5192 83.2202 15.5502 83.1648 15.6045C83.1093 15.6588 83.0768 15.7324 83.074 15.81V20.732C83.037 21.117 83.143 21.501 83.372 21.812C83.572 22.026 83.91 22.124 84.408 22.124H84.687C84.765 22.1257 84.8393 22.1573 84.8947 22.2121C84.9502 22.267 84.9825 22.341 84.985 22.419V24.889C84.9825 24.9667 84.9501 25.0405 84.8946 25.0951C84.8391 25.1496 84.7648 25.1807 84.687 25.182H83.513C82.297 25.182 81.362 24.868 80.705 24.26C80.047 23.634 79.729 22.731 79.729 21.497V15.81C79.7262 15.732 79.6934 15.6582 79.6376 15.6038C79.5817 15.5494 79.507 15.5187 79.429 15.518H77.697C77.6189 15.5162 77.5444 15.4845 77.4889 15.4294C77.4335 15.3744 77.4013 15.3001 77.399 15.222V13.047C77.4013 12.9689 77.4335 12.8948 77.489 12.8399C77.5445 12.7849 77.619 12.7535 77.697 12.752H79.43C79.508 12.751 79.5826 12.72 79.6382 12.6654C79.6939 12.6108 79.7264 12.5369 79.729 12.459V8.06597C79.7316 7.98804 79.7641 7.9141 79.8198 7.85953C79.8755 7.80496 79.9501 7.77395 80.028 7.77297H82.796C82.874 7.77395 82.9486 7.80496 83.0042 7.85953C83.0599 7.9141 83.0924 7.98804 83.095 8.06597V12.459C83.0976 12.5369 83.1301 12.6108 83.1858 12.6654C83.2415 12.72 83.3161 12.751 83.394 12.752H85.385C85.4632 12.7535 85.5378 12.7849 85.5934 12.8398C85.649 12.8947 85.6815 12.9688 85.684 13.047V15.222C85.6817 15.3003 85.6494 15.3747 85.5937 15.4298C85.5381 15.4849 85.4633 15.5165 85.385 15.518H83.372ZM96.019 21.478C96.3375 21.1411 96.5845 20.7433 96.7454 20.3085C96.9062 19.8738 96.9775 19.411 96.955 18.948C96.9728 18.4854 96.8993 18.024 96.7387 17.5899C96.5781 17.1558 96.3335 16.7575 96.019 16.418C95.3447 15.8006 94.4637 15.4582 93.5495 15.4582C92.6353 15.4582 91.7543 15.8006 91.08 16.418C90.7616 16.7549 90.5145 17.1526 90.3537 17.5874C90.1928 18.0222 90.1215 18.4849 90.144 18.948C90.1262 19.4105 90.1997 19.872 90.3603 20.3061C90.521 20.7402 90.7655 21.1384 91.08 21.478C91.4032 21.7997 91.7895 22.0511 92.2146 22.2164C92.6397 22.3816 93.0943 22.457 93.55 22.438C94.0064 22.4634 94.4629 22.3909 94.8889 22.2253C95.3149 22.0597 95.6996 21.8049 96.019 21.478ZM89.645 24.792C88.7098 24.2617 87.9489 23.4709 87.455 22.516C86.9303 21.3995 86.6583 20.1811 86.6583 18.9475C86.6583 17.7139 86.9303 16.4954 87.455 15.379C87.9549 14.4286 88.7143 13.6396 89.645 13.104C90.5803 12.5776 91.6379 12.3072 92.711 12.32C93.5885 12.2984 94.4576 12.4942 95.241 12.89C95.9335 13.2567 96.5122 13.8063 96.914 14.479H96.974V13.025C96.9768 12.9473 97.0093 12.8736 97.0647 12.8191C97.1201 12.7646 97.1943 12.7334 97.272 12.732H100.001C100.079 12.7332 100.153 12.7643 100.209 12.8188C100.265 12.8733 100.297 12.9471 100.3 13.025V24.867C100.298 24.9454 100.265 25.02 100.209 25.0751C100.153 25.1302 100.079 25.1617 100 25.163H97.274C97.1957 25.1615 97.121 25.1299 97.0653 25.0748C97.0096 25.0197 96.9773 24.9453 96.975 24.867V23.417H96.915C96.5132 24.0903 95.9341 24.6403 95.241 25.007C94.4571 25.4011 93.5882 25.5965 92.711 25.576C91.6379 25.5888 90.5803 25.3183 89.645 24.792ZM111.673 21.478C111.991 21.141 112.238 20.7432 112.399 20.3085C112.56 19.8737 112.631 19.411 112.609 18.948C112.627 18.4854 112.553 18.024 112.393 17.5899C112.232 17.1558 111.988 16.7575 111.673 16.418C110.999 15.8003 110.117 15.4578 109.203 15.4578C108.289 15.4578 107.407 15.8003 106.733 16.418C106.415 16.755 106.168 17.1528 106.007 17.5876C105.847 18.0223 105.775 18.485 105.798 18.948C105.78 19.4105 105.854 19.872 106.014 20.3061C106.175 20.7402 106.419 21.1384 106.734 21.478C107.057 21.7997 107.443 22.0511 107.869 22.2164C108.294 22.3816 108.748 22.457 109.204 22.438C109.66 22.4633 110.117 22.3907 110.543 22.2251C110.969 22.0595 111.354 21.8048 111.673 21.478ZM107.531 25.006C106.838 24.6391 106.259 24.0891 105.857 23.416H105.797V24.868C105.794 24.9459 105.762 25.0199 105.707 25.0748C105.651 25.1297 105.577 25.1612 105.499 25.163H102.73C102.652 25.1612 102.578 25.1297 102.522 25.0748C102.467 25.0199 102.435 24.9459 102.432 24.868V6.63397C102.435 6.55611 102.467 6.48221 102.522 6.4275C102.578 6.3728 102.652 6.34146 102.73 6.33997H105.499C105.577 6.3412 105.651 6.37228 105.707 6.4268C105.763 6.48132 105.795 6.55512 105.798 6.63297V14.497H105.858C106.261 13.8245 106.839 13.2748 107.531 12.907C108.315 12.5129 109.183 12.3175 110.06 12.338C111.134 12.325 112.191 12.5965 113.126 13.125C114.061 13.6542 114.822 14.4439 115.316 15.398C115.876 16.5019 116.151 17.7286 116.114 18.966C116.139 20.2024 115.866 21.4267 115.317 22.535C114.817 23.486 114.057 24.275 113.127 24.81C112.191 25.3364 111.133 25.6068 110.06 25.594C109.182 25.6012 108.314 25.3989 107.53 25.004L107.531 25.006ZM120.775 25.165H118.008C117.93 25.1637 117.855 25.1322 117.799 25.077C117.743 25.0219 117.711 24.9473 117.709 24.869V6.63497C117.712 6.55677 117.744 6.48258 117.8 6.42782C117.856 6.37306 117.931 6.34195 118.009 6.34097H120.776C120.854 6.34269 120.928 6.37396 120.983 6.42841C121.038 6.48285 121.071 6.55637 121.074 6.63397V24.868C121.075 24.9254 121.059 24.9819 121.028 25.0302C120.997 25.0784 120.952 25.1163 120.899 25.139C120.86 25.1558 120.818 25.164 120.776 25.163L120.775 25.165ZM127.288 15.616C126.807 16.0007 126.475 16.5421 126.352 17.146C126.343 17.1896 126.345 17.2345 126.356 17.2775C126.367 17.3206 126.388 17.3605 126.417 17.3944C126.445 17.4283 126.481 17.4553 126.522 17.4734C126.562 17.4915 126.607 17.5003 126.651 17.499H131.909C131.951 17.4991 131.993 17.4903 132.032 17.473C132.071 17.4558 132.105 17.4306 132.133 17.3991C132.162 17.3675 132.183 17.3303 132.196 17.29C132.209 17.2496 132.213 17.207 132.208 17.165C132.128 16.5788 131.837 16.0419 131.39 15.655C130.814 15.1969 130.094 14.96 129.359 14.987C128.619 14.967 127.892 15.188 127.288 15.616ZM134.02 14.087C135.095 15.242 135.633 16.875 135.632 18.987V19.342C135.629 19.4198 135.597 19.4936 135.541 19.5481C135.485 19.6027 135.411 19.6337 135.333 19.635H126.552C126.508 19.6358 126.465 19.6459 126.426 19.6646C126.386 19.6833 126.351 19.7102 126.323 19.7435C126.294 19.7767 126.273 19.8156 126.261 19.8576C126.249 19.8996 126.246 19.9437 126.252 19.987C126.366 20.7214 126.742 21.39 127.309 21.87C128.006 22.4152 128.875 22.693 129.759 22.653C131.079 22.6345 132.342 22.108 133.284 21.183C133.315 21.1546 133.352 21.1334 133.392 21.1209C133.433 21.1083 133.475 21.1048 133.517 21.1105C133.559 21.1163 133.599 21.1311 133.634 21.154C133.67 21.1769 133.7 21.2072 133.722 21.243L135.056 23.144C135.094 23.2046 135.111 23.2762 135.103 23.3473C135.096 23.4185 135.065 23.4852 135.016 23.537C134.354 24.1014 133.625 24.5823 132.846 24.969C131.875 25.4019 130.821 25.6159 129.758 25.596C128.513 25.6242 127.281 25.3406 126.173 24.771C125.175 24.2467 124.351 23.4429 123.803 22.458C123.223 21.4018 122.928 20.2128 122.947 19.008C122.925 17.8012 123.206 16.6081 123.764 15.538C124.287 14.5562 125.082 13.7464 126.054 13.206C127.11 12.63 128.298 12.3391 129.5 12.362C131.451 12.339 132.945 12.929 134.02 14.087ZM66.104 8.36297C66.1097 8.76476 65.9961 9.15921 65.7777 9.49647C65.5592 9.83373 65.2457 10.0986 64.8767 10.2577C64.5077 10.4168 64.0998 10.4629 63.7046 10.3902C63.3094 10.3175 62.9446 10.1293 62.6564 9.84928C62.3682 9.5693 62.1694 9.21014 62.0853 8.81722C62.0011 8.4243 62.0354 8.01525 62.1837 7.64179C62.332 7.26833 62.5877 6.94722 62.9185 6.71906C63.2492 6.4909 63.6402 6.36594 64.042 6.35997H64.052C64.588 6.35749 65.1036 6.56577 65.4874 6.93991C65.8713 7.31404 66.0927 7.82405 66.104 8.35997V8.36197V8.36297Z" fill="#181D26"/>
</g>
</g>
<defs>
<clipPath id="clip0_2001_928">
<rect width="98" height="20" fill="white" transform="translate(38.39 6.18994)"/>
</clipPath>
<clipPath id="clip1_2001_928">
<rect width="94" height="20" fill="white" transform="translate(42.39 6.18994)"/>
</clipPath>
</defs>
</svg>
